<svg width="129" height="47" viewBox="0 0 129 47" fill="none" xmlns="http://www.w3.org/2000/svg">
<path d="M23.5684 46C36.0325 46 46.1368 35.9266 46.1368 23.5C46.1368 11.0734 36.0325 1 23.5684 1C11.1043 1 1 11.0734 1 23.5C1 35.9266 11.1043 46 23.5684 46Z" fill="white" stroke="#055297" stroke-width="0.5"/>
<path d="M23.5676 44.6733C35.2987 44.6733 44.8085 35.1928 44.8085 23.4968C44.8085 11.8008 35.2987 2.32031 23.5676 2.32031C11.8366 2.32031 2.32678 11.8008 2.32678 23.4968C2.32678 35.1928 11.8366 44.6733 23.5676 44.6733Z" fill="#055297"/>
<path d="M11.1303 20.5312V22.4199H13.5287V23.3675H11.1303V25.9669H9.93555V19.5875H13.9713V20.5312H11.1303ZM18.3767 21.4404V25.9669H17.7084C17.5638 25.9669 17.4723 25.8994 17.4341 25.7671L17.3588 25.4057C17.173 25.5937 16.9679 25.7472 16.7438 25.8637C16.5194 25.9788 16.2554 26.0371 15.9516 26.0371C15.7038 26.0371 15.4839 25.996 15.2922 25.914C15.1034 25.8293 14.9441 25.7088 14.8143 25.5553C14.6845 25.4031 14.5857 25.2218 14.5179 25.014C14.4529 24.8022 14.4205 24.5693 14.4205 24.3165V21.4404H15.5135V24.3165C15.5135 24.5931 15.5768 24.8075 15.7038 24.961C15.8336 25.1106 16.0269 25.1847 16.2835 25.1847C16.4721 25.1847 16.6492 25.1437 16.8145 25.0616C16.9797 24.9769 17.1359 24.8605 17.2835 24.7135V21.4404H18.3767ZM20.4824 21.9963C20.574 21.9037 20.6697 21.8216 20.7701 21.7435C20.8733 21.6641 20.9811 21.5993 21.0931 21.5463C21.2082 21.4894 21.3307 21.4471 21.4604 21.4166C21.5901 21.3849 21.7318 21.369 21.8852 21.369C22.1331 21.369 22.3529 21.4113 22.5446 21.496C22.7363 21.5794 22.8956 21.6972 23.0226 21.8494C23.1523 21.999 23.2496 22.1816 23.3146 22.3934C23.3823 22.6012 23.4163 22.8328 23.4163 23.0843V25.9669H22.3233V23.0843C22.3233 22.809 22.26 22.5959 22.1331 22.4463C22.0062 22.2928 21.813 22.216 21.5534 22.216C21.3644 22.216 21.1875 22.2584 21.0223 22.3431C20.8572 22.4305 20.7007 22.5469 20.5533 22.6925V25.9669H19.4602V21.4404H20.1285C20.27 21.4404 20.3629 21.5053 20.4073 21.6377L20.4824 21.9963ZM27.3058 22.5959C27.1818 22.4463 27.0461 22.3405 26.8986 22.2783C26.754 22.216 26.5977 22.1843 26.4296 22.1843C26.2642 22.1843 26.1154 22.216 25.9826 22.2783C25.8498 22.3405 25.7362 22.4331 25.6418 22.5602C25.5473 22.6846 25.4751 22.8434 25.425 23.0366C25.3747 23.2272 25.3498 23.4549 25.3498 23.7169C25.3498 23.9816 25.3703 24.2053 25.4118 24.3906C25.456 24.5746 25.518 24.7241 25.5976 24.8406C25.6773 24.9557 25.7746 25.0405 25.8897 25.0934C26.0048 25.1424 26.133 25.1675 26.2747 25.1675C26.5018 25.1675 26.6951 25.1212 26.8544 25.0259C27.0137 24.9319 27.1641 24.7982 27.3058 24.6249V22.5959ZM28.3987 19.4102V25.9669H27.7306C27.5859 25.9669 27.4944 25.8994 27.4562 25.7671L27.3633 25.3316C27.1802 25.5394 26.9694 25.7088 26.7304 25.8372C26.4944 25.9682 26.2185 26.0331 25.9029 26.0331C25.6551 26.0331 25.4278 25.9802 25.2215 25.8783C25.0149 25.7763 24.8365 25.6255 24.686 25.4322C24.5384 25.2363 24.4234 24.9928 24.3408 24.7043C24.2612 24.4171 24.2213 24.0875 24.2213 23.7169C24.2213 23.3807 24.267 23.0684 24.3586 22.7812C24.4499 22.494 24.5812 22.2425 24.7524 22.0307C24.9233 21.819 25.1286 21.6549 25.3675 21.5371C25.6065 21.4166 25.8748 21.3557 26.1728 21.3557C26.4265 21.3557 26.6433 21.3954 26.8233 21.4749C27.0032 21.5543 27.1641 21.6628 27.3058 21.7965V19.4102H28.3987ZM30.5838 19.4102V25.9669H29.4907V19.4102H30.5838ZM35.7969 21.4404L33.3233 27.211C33.2909 27.2865 33.248 27.3447 33.1949 27.3831C33.1449 27.4241 33.0666 27.4453 32.9603 27.4453H32.1462L32.9958 25.6254L31.1594 21.4404H32.1196C32.2052 21.4404 32.2716 21.4616 32.3187 21.5013C32.3691 21.5424 32.4058 21.59 32.4293 21.6429L33.3941 23.9896C33.4266 24.069 33.4531 24.1484 33.4737 24.2278C33.4975 24.3072 33.5195 24.3893 33.5401 24.47C33.5666 24.3893 33.5932 24.3072 33.6197 24.2278C33.6463 24.1457 33.6759 24.0637 33.7083 23.9843L34.6198 21.6429C34.6436 21.5847 34.6818 21.5357 34.7349 21.496C34.791 21.459 34.8529 21.4404 34.9207 21.4404H35.7969Z" fill="white"/>
<path d="M65.68 16.1V17.96H59.78V22.06H64.38V23.92H59.78V30H57.5V16.1H65.68ZM77.773 18.98V30H75.493V28.7C75.133 29.1533 74.6596 29.5133 74.073 29.78C73.4996 30.0333 72.8863 30.16 72.233 30.16C71.3663 30.16 70.5863 29.98 69.893 29.62C69.213 29.26 68.673 28.7267 68.273 28.02C67.8863 27.3133 67.693 26.46 67.693 25.46V18.98H69.953V25.12C69.953 26.1067 70.1996 26.8667 70.693 27.4C71.1863 27.92 71.8596 28.18 72.713 28.18C73.5663 28.18 74.2396 27.92 74.733 27.4C75.2396 26.8667 75.493 26.1067 75.493 25.12V18.98H77.773ZM86.3413 18.8C87.2079 18.8 87.9813 18.98 88.6613 19.34C89.3546 19.7 89.8946 20.2333 90.2813 20.94C90.6679 21.6467 90.8613 22.5 90.8613 23.5V30H88.6013V23.84C88.6013 22.8533 88.3546 22.1 87.8613 21.58C87.3679 21.0467 86.6946 20.78 85.8413 20.78C84.9879 20.78 84.3079 21.0467 83.8013 21.58C83.3079 22.1 83.0613 22.8533 83.0613 23.84V30H80.7813V18.98H83.0613V20.24C83.4346 19.7867 83.9079 19.4333 84.4813 19.18C85.0679 18.9267 85.6879 18.8 86.3413 18.8ZM93.0095 24.44C93.0095 23.3333 93.2362 22.3533 93.6895 21.5C94.1562 20.6467 94.7829 19.9867 95.5695 19.52C96.3695 19.04 97.2562 18.8 98.2295 18.8C98.9495 18.8 99.6562 18.96 100.35 19.28C101.056 19.5867 101.616 20 102.03 20.52V15.2H104.33V30H102.03V28.34C101.656 28.8733 101.136 29.3133 100.47 29.66C99.8162 30.0067 99.0629 30.18 98.2095 30.18C97.2495 30.18 96.3695 29.94 95.5695 29.46C94.7829 28.9667 94.1562 28.2867 93.6895 27.42C93.2362 26.54 93.0095 25.5467 93.0095 24.44ZM102.03 24.48C102.03 23.72 101.87 23.06 101.55 22.5C101.243 21.94 100.836 21.5133 100.33 21.22C99.8229 20.9267 99.2762 20.78 98.6895 20.78C98.1029 20.78 97.5562 20.9267 97.0495 21.22C96.5429 21.5 96.1295 21.92 95.8095 22.48C95.5029 23.0267 95.3495 23.68 95.3495 24.44C95.3495 25.2 95.5029 25.8667 95.8095 26.44C96.1295 27.0133 96.5429 27.4533 97.0495 27.76C97.5695 28.0533 98.1162 28.2 98.6895 28.2C99.2762 28.2 99.8229 28.0533 100.33 27.76C100.836 27.4667 101.243 27.04 101.55 26.48C101.87 25.9067 102.03 25.24 102.03 24.48ZM109.604 15.2V30H107.324V15.2H109.604ZM122.518 18.98L115.758 35.18H113.398L115.638 29.82L111.298 18.98H113.838L116.938 27.38L120.158 18.98H122.518Z" fill="#055297"/>
</svg>
