<svg width="89" height="91" viewBox="0 0 89 91" fill="none" xmlns="http://www.w3.org/2000/svg">
<path id="Vector" d="M49.5977 83.7795C52.1401 83.4417 54.1488 85.9344 53.2871 88.3578C52.8368 89.5864 51.7908 90.4487 50.493 90.6211C47.5063 91.0064 44.4892 91.0981 41.4848 90.8949C30.4004 90.1464 20.4277 85.3299 13.0399 77.9211C4.9837 69.8421 0 58.68 0 46.3534C0 34.025 4.9837 22.8647 13.0399 14.7856C21.0961 6.70655 32.2248 1.70869 44.5182 1.70869C48.7804 1.70869 52.9343 2.32386 56.8933 3.47065C60.1412 4.41047 63.2708 5.72111 66.2207 7.37684L65.3431 5.0726C64.6108 3.14173 65.5771 0.981501 67.5007 0.245424C69.4261 -0.488875 71.5802 0.480115 72.3142 2.41098L76.0232 12.1436C76.1631 12.5139 76.2444 12.9038 76.2643 13.2992C76.5551 15.1128 75.4718 16.9103 73.6705 17.4579L63.7368 20.5053C61.7706 21.1027 59.6945 19.9897 59.0988 18.0197C58.5031 16.0497 59.613 13.966 61.5774 13.3686L62.3947 13.1179C60.0403 11.8399 57.5557 10.8194 54.9838 10.074C51.6915 9.12102 48.1811 8.60897 44.5182 8.60897C34.1253 8.60897 24.7146 12.8334 17.9048 19.6644C11.0932 26.4935 6.88074 35.9292 6.88074 46.3534C6.88074 56.7758 11.0932 66.2115 17.9048 73.0424C24.0764 79.2315 32.3825 83.2817 41.6213 83.9858C44.2629 84.1867 46.9808 84.1209 49.5977 83.7795ZM37.7031 28.195C37.7031 26.2908 39.2438 24.7458 41.1444 24.7458C43.0432 24.7458 44.5838 26.2908 44.5838 28.195V49.1963L58.918 55.5152C60.6554 56.2815 61.4426 58.3155 60.6785 60.0579C59.9144 61.7986 57.8861 62.5897 56.1487 61.8234L39.9334 54.676C38.6303 54.1835 37.7031 52.923 37.7031 51.4455V28.195ZM61.5844 80.092C58.8151 81.5126 59.1839 85.5859 62.1677 86.4803C63.0312 86.7256 63.891 86.6509 64.6959 86.2473C66.9156 85.129 69.0467 83.8115 71.0448 82.3323C72.0199 81.6033 72.527 80.4547 72.4224 79.2404C72.1564 76.5574 69.1105 75.1973 66.9458 76.7903C65.2557 78.042 63.462 79.1465 61.5844 80.092ZM75.6189 67.7263C74.0517 70.0696 75.8122 73.2202 78.6276 73.0957C79.7286 73.0371 80.7143 72.4966 81.3313 71.572C82.7249 69.4989 83.9287 67.328 84.9605 65.0522C85.9551 62.8049 84.4056 60.2873 81.9536 60.1824C80.5477 60.1362 79.2747 60.9238 78.6897 62.2093C77.8156 64.1384 76.7997 65.9697 75.6189 67.7263ZM81.9412 50.032C81.8171 51.3868 82.4731 52.6563 83.6415 53.3443C85.8328 54.5925 88.5347 53.195 88.7918 50.6827C89.0276 48.19 89.0648 45.7222 88.8946 43.2242C88.8095 42.024 88.1181 40.9661 87.0543 40.4061C84.668 39.1651 81.8402 41.0213 82.0299 43.7078C82.1752 45.8271 82.1416 47.9162 81.9412 50.032ZM79.0903 31.4736C79.8616 33.2569 81.9306 34.0588 83.6911 33.2444C85.3878 32.4621 86.1484 30.469 85.4126 28.748C84.4375 26.4562 83.2638 24.2533 81.9217 22.1553C80.2357 19.5559 76.2678 20.3133 75.6544 23.3554C75.486 24.2497 75.6455 25.1227 76.1367 25.8926C77.2749 27.6741 78.2642 29.5267 79.0903 31.4736Z" fill="#DC8D1B"/>
</svg>
