<svg width="94" height="94" viewBox="0 0 94 94" fill="none" xmlns="http://www.w3.org/2000/svg">
<path d="M57.1783 31.4873L42.1007 49.5712L36.8224 43.2429C36.3289 42.6507 35.7236 42.1615 35.041 41.8033C34.3585 41.445 33.612 41.2247 32.8443 41.1549C32.0766 41.0851 31.3027 41.1672 30.5667 41.3965C29.8307 41.6258 29.1471 41.9978 28.5549 42.4913C27.9627 42.9848 27.4735 43.5901 27.1152 44.2727C26.757 44.9553 26.5367 45.7017 26.4669 46.4694C26.3971 47.2371 26.4792 48.0111 26.7085 48.747C26.9378 49.483 27.3098 50.1666 27.8033 50.7588L37.5912 62.5088C38.1413 63.1708 38.8303 63.7036 39.6094 64.0695C40.3885 64.4354 41.2386 64.6253 42.0993 64.6259C42.9601 64.6264 43.8104 64.4376 44.59 64.0727C45.3695 63.7078 46.0593 63.1759 46.6103 62.5146L66.1974 39.0146C66.6952 38.4229 67.0713 37.7386 67.3041 37.0012C67.5368 36.2638 67.6217 35.4876 67.5538 34.7173C67.4859 33.947 67.2665 33.1976 66.9083 32.5123C66.5501 31.827 66.0601 31.2191 65.4664 30.7236C64.8727 30.2281 64.187 29.8547 63.4486 29.6249C62.7102 29.395 61.9338 29.3132 61.1637 29.3842C60.3937 29.4551 59.6452 29.6774 58.9613 30.0383C58.2774 30.3992 57.6715 30.8916 57.1783 31.4873Z" fill="#21D789"/>
<path d="M47 0C37.7043 0 28.6173 2.7565 20.8882 7.92093C13.1591 13.0854 7.135 20.4257 3.57768 29.0139C0.0203644 37.602 -0.910392 47.0521 0.903113 56.1692C2.71662 65.2863 7.19293 73.6609 13.766 80.234C20.3391 86.8071 28.7137 91.2834 37.8308 93.0969C46.9479 94.9104 56.398 93.9796 64.9861 90.4223C73.5743 86.865 80.9146 80.8409 86.0791 73.1118C91.2435 65.3827 94 56.2957 94 47C93.9867 34.5389 89.0307 22.592 80.2194 13.7806C71.408 4.9693 59.4611 0.0132706 47 0ZM47 82.25C40.0282 82.25 33.213 80.1826 27.4162 76.3093C21.6193 72.436 17.1013 66.9307 14.4333 60.4896C11.7653 54.0485 11.0672 46.9609 12.4273 40.1231C13.7875 33.2852 17.1447 27.0043 22.0745 22.0745C27.0043 17.1447 33.2853 13.7874 40.1231 12.4273C46.9609 11.0672 54.0485 11.7653 60.4896 14.4332C66.9307 17.1012 72.436 21.6193 76.3093 27.4161C80.1826 33.213 82.25 40.0282 82.25 47C82.2398 56.3457 78.5227 65.3058 71.9143 71.9142C65.3058 78.5227 56.3458 82.2398 47 82.25Z" fill="#21D789"/>
</svg>
