<svg width="39" height="46" viewBox="0 0 39 46" fill="none" xmlns="http://www.w3.org/2000/svg">
<g id="Group">
<path id="Vector" d="M30.5587 33.4858C29.4587 30.4768 27.7168 28.2588 25.6606 26.8262C24.2697 25.8568 22.7424 25.2465 21.1866 24.9936C19.6246 24.7406 18.0217 24.8431 16.4862 25.2989C13.1174 26.3 10.0778 29.0262 8.44538 33.4858H30.5587ZM7.60279 10.0336H31.3998C31.5274 8.95609 31.8253 4.97696 31.8124 3.76674H7.18943C7.17653 4.97733 7.47447 8.95609 7.60279 10.0336ZM0.335558 41.5447H3.86335C3.76932 31.3876 8.35135 25.0858 14.0223 22.6653C8.34729 20.2441 3.76305 13.9349 3.86372 3.76637H0.335927C0.151186 3.76637 0.000737491 3.59674 0.000737491 3.3884L0 0.377595C0 0.169623 0.150817 0 0.335558 0H38.6644C38.8488 0 39 0.169623 39 0.377595V3.38803C39 3.59564 38.8488 3.76563 38.6644 3.76563H35.1355C35.2185 12.3257 31.9713 18.1607 27.5593 21.2353C26.7525 21.7965 25.8841 22.2796 24.9803 22.6635C25.8822 23.0503 26.754 23.5315 27.5586 24.0942C31.9669 27.1666 35.2122 32.9953 35.1348 41.5436L38.6644 41.544C38.8488 41.544 39 41.7147 39 41.9223V44.932C39 45.14 38.8488 45.3107 38.6644 45.3107H0.335558C0.150817 45.3107 0.000368746 45.14 0.000368746 44.9324V41.9227C0.000368746 41.7154 0.151186 41.5447 0.335558 41.5447Z" fill="#EEA339"/>
</g>
</svg>
